<mxfile host="app.diagrams.net" modified="2024-04-21T17:45:13.329Z" agent="Mozilla/5.0 (Windows NT 10.0; Win64; x64) AppleWebKit/537.36 (KHTML, like Gecko) Chrome/123.0.0.0 Safari/537.36" version="24.2.1" etag="ezsTak-nggwmDJOQmnAY" type="github">
  <diagram name="Page-1" id="6qwfnmohGBekBcv6h3gc">
    <mxGraphModel>
      <root>
        <mxCell id="0" />
        <mxCell id="1" parent="0" />
      </root>
    </mxGraphModel>
  </diagram>
</mxfile>
